<svg width="17" height="17" viewBox="0 0 17 17" fill="white" xmlns="http://www.w3.org/2000/svg">
<path d="M13.8333 6.17402C14.4227 6.36366 14.8333 6.92613 14.8333 7.57215V10.4292C14.8333 11.1869 14.2684 11.8295 13.5131 11.8911C13.2872 11.9096 13.0606 11.9257 12.8333 11.9395V14L10.8333 12C9.93083 12 9.03706 11.9632 8.15348 11.8911C7.95461 11.8748 7.76893 11.8183 7.60329 11.73M13.8333 6.17402C13.7324 6.14154 13.6262 6.12 13.5159 6.11085C12.6315 6.03744 11.7367 6 10.8333 6C9.92988 6 9.03519 6.03744 8.15072 6.11085C7.39666 6.17343 6.83333 6.81549 6.83333 7.57214V10.4291C6.83333 10.9873 7.1399 11.483 7.60329 11.73M13.8333 6.17402V4.92487C13.8333 3.84393 13.0655 2.9071 11.9935 2.76794C10.6319 2.59117 9.24335 2.5 7.83352 2.5C6.42355 2.5 5.03488 2.59119 3.67308 2.76799C2.60115 2.90716 1.83333 3.84399 1.83333 4.92492V9.07509C1.83333 10.156 2.60115 11.0929 3.67309 11.232C4.05773 11.282 4.44452 11.3251 4.83333 11.3612V14.5L7.60329 11.73" stroke="#5D77A6" stroke-linecap="round" stroke-linejoin="round"/>
</svg>
