<svg width="60" height="24" viewBox="0 0 60 24" fill="none" xmlns="http://www.w3.org/2000/svg">
<path d="M5.076 16.716C1.86 16.716 0.672 14.184 0.672 12.228V11.964C0.672 9.852 1.92 7.5 5.004 7.5C7.344 7.5 8.724 8.796 8.952 10.776H7.752C7.548 9.288 6.432 8.58 5.004 8.58C2.928 8.58 1.872 10.14 1.872 12.108C1.872 13.992 2.94 15.636 5.076 15.636C6.576 15.636 7.68 14.868 7.908 13.44H9.108C8.868 15.24 7.524 16.716 5.076 16.716ZM11.6271 16.5H10.4751V8.652H9.58706V7.74H11.6271V16.5ZM16.5487 16.716C14.3167 16.716 13.1167 15.024 13.1167 13.404V13.188C13.1167 11.544 14.3767 9.876 16.5487 9.876C18.7207 9.876 19.9807 11.544 19.9807 13.188V13.404C19.9807 15.024 18.7807 16.716 16.5487 16.716ZM16.5487 15.684C17.9887 15.684 18.8287 14.64 18.8287 13.296C18.8287 11.928 17.9527 10.908 16.5487 10.908C15.1447 10.908 14.2687 11.928 14.2687 13.296C14.2687 14.64 15.1087 15.684 16.5487 15.684ZM23.566 16.692C21.886 16.692 20.938 15.924 20.902 14.676H21.982C22.006 15.18 22.426 15.708 23.566 15.708C24.586 15.708 25.15 15.252 25.15 14.652C25.15 14.124 24.778 13.836 23.878 13.74L23.182 13.668C21.958 13.536 21.118 12.948 21.118 11.856C21.118 10.632 22.126 9.9 23.566 9.9C25.006 9.9 25.978 10.548 26.014 11.808H24.934C24.91 11.292 24.466 10.884 23.566 10.884C22.666 10.884 22.198 11.304 22.198 11.856C22.198 12.336 22.498 12.624 23.254 12.708L23.95 12.78C25.318 12.924 26.23 13.536 26.23 14.652C26.23 15.852 25.126 16.692 23.566 16.692ZM30.3836 16.716C28.1276 16.716 27.1796 15.024 27.1796 13.404V13.188C27.1796 11.532 28.1636 9.876 30.3116 9.876C32.3876 9.876 33.3716 11.4 33.3716 12.996V13.512H28.2836C28.3556 14.772 29.0036 15.708 30.3836 15.708C31.3916 15.708 32.0516 15.192 32.1836 14.592H33.2636C32.9876 15.924 31.8956 16.716 30.3836 16.716ZM30.3116 10.884C29.1596 10.884 28.5116 11.592 28.3316 12.648H32.2436C32.0996 11.556 31.4636 10.884 30.3116 10.884Z" fill="#3183FF"/>
<path d="M44.25 6.75L48 3M48 3L51.75 6.75M48 3V21" stroke="#3183FF" stroke-width="1.5" stroke-linecap="round" stroke-linejoin="round"/>
</svg>
