<svg width="17" height="17" viewBox="0 0 17 17" fill="none" xmlns="http://www.w3.org/2000/svg">
<path fill-rule="evenodd" clip-rule="evenodd" d="M0.78125 8.5C0.78125 4.23705 4.23705 0.78125 8.5 0.78125C12.7629 0.78125 16.2188 4.23705 16.2188 8.5C16.2188 12.7629 12.7629 16.2188 8.5 16.2188C4.23705 16.2188 0.78125 12.7629 0.78125 8.5ZM11.3582 7.06386C11.5488 6.79702 11.4869 6.42619 11.2201 6.2356C10.9533 6.045 10.5824 6.1068 10.3918 6.37364L7.83048 9.95955L6.54484 8.67391C6.31297 8.44203 5.93703 8.44203 5.70516 8.67391C5.47328 8.90578 5.47328 9.28172 5.70516 9.51359L7.48641 11.2948C7.60982 11.4183 7.78128 11.4811 7.95522 11.4667C8.12916 11.4523 8.28796 11.3621 8.3894 11.2201L11.3582 7.06386Z" fill="#27AE60"/>
</svg>
