<svg width="158" height="177" viewBox="0 0 158 177" fill="none" xmlns="http://www.w3.org/2000/svg">
<g clip-path="url(#clip0_1514_3652)">
<path d="M58.6537 175.682C60.6458 176.79 63.8782 176.739 65.8349 175.567L155.638 121.8C157.595 120.629 157.568 118.756 155.581 117.639L99.9171 86.3739C97.9295 85.2574 94.7103 85.3171 92.7668 86.5088L3.76178 141.023C1.81612 142.212 1.85592 144.096 3.85022 145.204L58.6537 175.682Z" fill="#E2E7F0"/>
<path d="M94.5802 0.00643144H90.1141C89.3712 -0.044421 88.4757 0.205419 87.514 0.786906L2.84685 51.9179C0.266645 53.4767 0.0234375 56.8351 0.0234375 59.4176V120.878C0.0234375 122.572 0.927727 123.505 2.27421 123.512V123.518H7.08087V121.259L87.5118 71.5978C90.0942 70.0391 92.1858 66.6806 92.1858 64.0982V3.92649H94.578V0.00643144H94.5802Z" fill="#474747"/>
<path d="M59.7516 153.858C61.6398 154.909 64.702 154.86 66.557 153.75L151.664 102.796C153.519 101.686 153.495 99.9106 151.609 98.8538L98.8572 69.2201C96.9734 68.161 93.9245 68.2185 92.0805 69.3483L7.73179 121.012C5.88783 122.14 5.92542 123.924 7.8158 124.974L59.7516 153.858Z" fill="white"/>
<path d="M96.7043 64.1003C96.7043 66.6827 94.6105 70.0389 92.0281 71.5999L7.36541 122.731C4.78299 124.29 2.69141 123.461 2.69141 120.878V59.4174C2.69141 56.835 4.7852 53.4787 7.36541 51.9178L92.0281 0.786769C94.6105 -0.771968 96.7043 0.0571472 96.7043 2.63957V64.1003Z" fill="#1A1A1A"/>
<path d="M10.3398 60.5937C10.4283 60.0431 11.2043 58.8072 11.9892 58.3318L89.0616 11.7842V64.1047C88.9732 64.6552 88.1972 65.8912 87.4123 66.3665L10.3398 112.914V60.5937Z" fill="#649DC8"/>
<path d="M59.8628 161.07C61.7509 162.12 64.8131 162.071 66.6681 160.961L151.775 110.005C153.63 108.895 153.018 100.575 153.018 100.575L98.9683 76.4335C97.0845 75.3744 94.0356 75.4319 92.1917 76.5617L6.37706 123.14C6.37706 123.14 6.03878 131.137 7.92695 132.185L59.8628 161.07Z" fill="#7A7A7A"/>
<path d="M59.7516 153.858C61.6398 154.909 64.702 154.86 66.557 153.75L151.664 102.796C153.519 101.686 153.495 99.9106 151.609 98.8538L98.8572 69.2201C96.9734 68.161 93.9245 68.2185 92.0805 69.3483L7.73179 121.012C5.88783 122.14 5.92542 123.924 7.8158 124.974L59.7516 153.858Z" fill="#E6E8E9"/>
<path d="M91.3154 72.8358L88.5605 71.1997L14.0352 115.326L16.5866 116.688C18.1034 117.564 20.5863 117.562 22.103 116.686L91.3088 76.0329C92.8255 75.1551 92.8277 73.7158 91.3154 72.8358Z" fill="#1A1A1A"/>
<path d="M72.7148 125.745L98.1698 110.12L116.185 120.237L90.3518 135.555L72.7148 125.745Z" fill="#CCCCCC"/>
<path d="M30.2606 124.793C30.9615 125.163 31.0234 125.768 30.3977 126.153L25.7767 128.983C25.1532 129.366 24.0787 129.377 23.3778 129.01L18.1931 126.286C17.4922 125.916 17.4281 125.308 18.0538 124.924L22.6747 122.094C23.3004 121.713 24.375 121.7 25.0759 122.069L30.2606 124.793Z" fill="#1A1A1A"/>
<path d="M38.1682 119.949C38.869 120.318 38.9309 120.926 38.3052 121.308L33.6843 124.138C33.0586 124.521 31.9841 124.532 31.2832 124.163L26.0984 121.439C25.3976 121.07 25.3357 120.461 25.9592 120.079L30.5801 117.249C31.2058 116.864 32.2803 116.855 32.9812 117.222L38.1682 119.949Z" fill="#1A1A1A"/>
<path d="M47.8222 134.019C48.5231 134.387 48.585 134.997 47.9615 135.379L43.3406 138.209C42.7148 138.592 41.6403 138.603 40.9394 138.234L35.7547 135.51C35.0538 135.14 34.9919 134.532 35.6154 134.15L40.2341 131.32C40.8598 130.937 41.9344 130.926 42.6353 131.293L47.8222 134.019Z" fill="#1A1A1A"/>
<path d="M55.732 129.178C56.4329 129.547 56.4948 130.155 55.8713 130.537L51.2526 133.365C50.6269 133.748 49.5523 133.759 48.8515 133.392L43.6645 130.668C42.9636 130.299 42.9017 129.691 43.5274 129.308L48.1484 126.478C48.7719 126.098 49.8464 126.084 50.5473 126.454L55.732 129.178Z" fill="#1A1A1A"/>
<path d="M100.355 101.849C101.056 102.219 101.118 102.827 100.492 103.209L59.2312 128.478C58.6077 128.861 57.5309 128.872 56.8301 128.505L51.6453 125.781C50.9444 125.412 50.8825 124.804 51.506 124.421L92.7695 99.1519C93.393 98.7694 94.4697 98.7584 95.1706 99.1254L100.355 101.849Z" fill="#1A1A1A"/>
<path d="M45.9305 115.195C46.6314 115.564 46.6933 116.17 46.0676 116.555L41.4489 119.385C40.8232 119.768 39.7486 119.779 39.0477 119.412L33.863 116.688C33.1621 116.318 33.098 115.71 33.7237 115.328L38.3447 112.498C38.9681 112.115 40.0449 112.104 40.7458 112.474L45.9305 115.195Z" fill="#1A1A1A"/>
<path d="M53.8378 110.353C54.5387 110.722 54.6006 111.33 53.9771 111.713L49.3562 114.543C48.7305 114.925 47.6581 114.936 46.9551 114.567L41.7703 111.843C41.0694 111.474 41.0075 110.866 41.631 110.483L46.252 107.653C46.8755 107.271 47.9522 107.26 48.6531 107.627L53.8378 110.353Z" fill="#1A1A1A"/>
<path d="M61.5253 105.644C62.2262 106.013 62.2881 106.621 61.6624 107.003L57.0437 109.833C56.418 110.216 55.3434 110.227 54.6426 109.858L49.4578 107.134C48.7569 106.767 48.695 106.156 49.3185 105.774L53.9395 102.944C54.563 102.561 55.6397 102.55 56.3406 102.917L61.5253 105.644Z" fill="#1A1A1A"/>
<path d="M69.4316 100.801C70.1325 101.171 70.1944 101.779 69.5709 102.161L64.9499 104.991C64.3242 105.374 63.2497 105.387 62.5488 105.018L57.3641 102.294C56.6632 101.925 56.6013 101.317 57.2248 100.934L61.8457 98.1041C62.4714 97.7216 63.546 97.7105 64.2468 98.0776L69.4316 100.801Z" fill="#1A1A1A"/>
<path d="M55.2508 119.378C55.9516 119.745 56.0578 120.329 55.4851 120.678L51.2622 123.265C50.6917 123.617 49.6592 123.599 48.9583 123.232L43.7736 120.508C43.0727 120.141 42.9666 119.558 43.537 119.208L47.76 116.621C48.3304 116.272 49.3629 116.285 50.0638 116.654L55.2508 119.378Z" fill="#1A1A1A"/>
<path d="M62.4786 114.95C63.1795 115.317 63.2856 115.901 62.7152 116.25L58.4922 118.835C57.9218 119.184 56.8893 119.169 56.1884 118.802L51.0037 116.078C50.3028 115.709 50.1966 115.127 50.7693 114.778L54.9923 112.193C55.5649 111.844 56.5952 111.857 57.2961 112.226L62.4786 114.95Z" fill="#1A1A1A"/>
<path d="M69.5062 110.647C70.2071 111.016 70.3132 111.598 69.7406 111.947L65.5176 114.532C64.9472 114.881 63.9147 114.865 63.2138 114.498L58.029 111.775C57.3282 111.405 57.222 110.824 57.7947 110.474L62.0176 107.888C62.5881 107.538 63.6206 107.554 64.3215 107.921L69.5062 110.647Z" fill="#1A1A1A"/>
<path d="M76.7347 106.221C77.4356 106.59 77.5417 107.172 76.9691 107.521L72.7461 110.108C72.1757 110.457 71.1432 110.442 70.4423 110.075L65.2576 107.351C64.5567 106.981 64.4506 106.4 65.0232 106.051L69.2462 103.464C69.8166 103.114 70.8491 103.13 71.55 103.497L76.7347 106.221Z" fill="#1A1A1A"/>
<path d="M83.891 101.838C84.5919 102.205 84.698 102.789 84.1253 103.138L79.9024 105.725C79.332 106.075 78.2994 106.059 77.5985 105.692L72.4138 102.966C71.7129 102.597 71.6068 102.015 72.1794 101.666L76.4024 99.079C76.9728 98.7297 78.0054 98.7452 78.7062 99.1122L83.891 101.838Z" fill="#1A1A1A"/>
<path d="M91.1196 97.4106C91.8205 97.7798 91.9267 98.3613 91.3562 98.7106L87.1333 101.297C86.5628 101.647 85.5303 101.631 84.8294 101.264L79.6447 98.5382C78.9438 98.1712 78.8377 97.5875 79.4081 97.2381L83.6333 94.6513C84.2037 94.302 85.234 94.3174 85.9371 94.6845L91.1196 97.4106Z" fill="#1A1A1A"/>
<path d="M98.1446 93.1083C98.8455 93.4775 98.9516 94.059 98.3812 94.4083L94.1582 96.9952C93.5878 97.3445 92.5553 97.3312 91.8544 96.962L86.6697 94.2381C85.9688 93.8689 85.8627 93.2874 86.4353 92.938L90.6583 90.3512C91.2287 89.9996 92.259 90.0151 92.9621 90.3843L98.1446 93.1083Z" fill="#1A1A1A"/>
<path d="M108.426 96.9063C109.127 97.2755 109.186 97.8858 108.561 98.2683L103.922 101.109C103.294 101.492 102.217 101.505 101.519 101.138L99.5598 100.108C98.8589 99.7386 98.7992 99.1283 99.4249 98.7458L104.064 95.9047C104.689 95.52 105.768 95.5068 106.469 95.876L108.426 96.9063Z" fill="#1A1A1A"/>
<path d="M124.074 87.3239C124.775 87.6909 124.835 88.3012 124.209 88.6859L119.57 91.527C118.943 91.9117 117.866 91.9228 117.165 91.5557L115.208 90.5254C114.507 90.1562 114.448 89.5482 115.073 89.1635L119.712 86.3223C120.34 85.9376 121.417 85.9266 122.118 86.2936L124.074 87.3239Z" fill="#1A1A1A"/>
<path d="M116.2 92.1432C116.901 92.5125 116.961 93.1205 116.335 93.5052L111.696 96.3463C111.068 96.731 109.992 96.7421 109.291 96.375L104.639 93.9297C103.938 93.5605 103.876 92.9525 104.504 92.5677L109.143 89.7266C109.768 89.3419 110.847 89.3309 111.548 89.6979L116.2 92.1432Z" fill="#1A1A1A"/>
<path d="M77.1911 96.0483C77.892 96.4175 77.9539 97.0255 77.3304 97.408L72.7094 100.238C72.0837 100.621 71.0092 100.632 70.3105 100.265L65.1258 97.5407C64.4249 97.1714 64.363 96.5634 64.9865 96.1809L69.6074 93.3509C70.2331 92.9684 71.3077 92.9573 72.0086 93.3265L77.1911 96.0483Z" fill="#1A1A1A"/>
<path d="M85.1018 91.2063C85.8026 91.5755 85.8645 92.1835 85.2388 92.566L80.6179 95.3961C79.9944 95.7786 78.9177 95.7896 78.2168 95.4226L73.032 92.6987C72.3312 92.3294 72.2693 91.7214 72.8927 91.3389L77.5137 88.5089C78.1394 88.1264 79.2139 88.1153 79.9148 88.4823L85.1018 91.2063Z" fill="#1A1A1A"/>
<path d="M92.8964 86.4325C93.5973 86.8018 93.6592 87.4098 93.0357 87.7923L88.4148 90.6223C87.7913 91.0048 86.7145 91.0159 86.0137 90.6489L80.8289 87.9249C80.128 87.5557 80.0661 86.9477 80.6896 86.5652L85.3106 83.7351C85.9341 83.3526 87.0108 83.3416 87.7117 83.7108L92.8964 86.4325Z" fill="#1A1A1A"/>
<path d="M106.618 78.0285C107.318 78.3977 107.38 79.0057 106.755 79.3882L96.2038 85.8509C95.5781 86.2334 94.5036 86.2445 93.8027 85.8752L88.618 83.1513C87.9171 82.7821 87.8552 82.1741 88.4787 81.7916L99.0295 75.3289C99.6552 74.9464 100.73 74.9353 101.431 75.3046L106.618 78.0285Z" fill="#1A1A1A"/>
<path d="M115.313 82.5941C116.014 82.9634 116.076 83.5714 115.45 83.9539L101.751 92.3446C101.127 92.7271 100.05 92.7381 99.3496 92.3711L94.1649 89.6472C93.464 89.2779 93.4021 88.6699 94.0256 88.2874L107.725 79.8968C108.35 79.5143 109.425 79.5032 110.126 79.8724L115.313 82.5941Z" fill="#1A1A1A"/>
<path d="M47.9599 123.845C48.6608 124.212 48.7227 124.822 48.0992 125.204L34.4 133.593C33.7743 133.975 32.6998 133.989 31.9989 133.619L26.8142 130.896C26.1133 130.526 26.0492 129.918 26.6749 129.536L40.3741 121.145C40.9976 120.763 42.0743 120.752 42.7752 121.119L47.9599 123.845Z" fill="#1A1A1A"/>
<path d="M45.1497 38.3025L10.3379 103.166V112.914L22.034 105.852L64.5864 26.5645L45.1497 38.3025Z" fill="#84ADD2"/>
<path d="M88.7416 11.9766L79.6191 17.4863L37.0645 96.7741L46.1892 91.2621L88.7416 11.9766Z" fill="#84ADD2"/>
</g>
<defs>
<clipPath id="clip0_1514_3652">
<rect width="157.063" height="176.48" fill="white" transform="translate(0.0253906)"/>
</clipPath>
</defs>
</svg>
