<svg width="80" height="80" viewBox="0 0 80 80" fill="none" xmlns="http://www.w3.org/2000/svg">
<rect x="0.5" y="0.5" width="79" height="79" rx="39.5" fill="#EBF3FF"/>
<rect x="0.5" y="0.5" width="79" height="79" rx="39.5" stroke="#001F68"/>
<path d="M23.575 60.85L25.7825 60.2591L26.3748 58.9761L30.2005 59.0766L34.1791 58.0117L35.0753 56.6224L38.7981 56.7754L42.685 55.735C45.385 55.015 46.3 51.625 44.32 49.645L30.34 35.65C28.36 33.67 24.97 34.57 24.25 37.285L23.0911 41.6149L23.2533 45.1317L21.9321 45.9448L20.7473 50.3714L20.9458 53.7431L19.6506 54.4686L19.135 56.395C18.4 59.095 20.875 61.57 23.575 60.85Z" fill="#F9C23C"/>
<path d="M27.7016 53.579C25.4811 51.5055 23.5898 49.009 21.9198 45.9926L23.0858 41.6363C25.0035 45.833 27.1607 48.97 29.7485 51.3866C32.2425 53.7156 35.1968 55.4318 38.8541 56.7605L34.1603 58.0169C31.7575 56.8211 29.6204 55.3708 27.7016 53.579Z" fill="#3F5FFF"/>
<path d="M22.431 57.8294C21.3695 56.8367 20.457 55.7249 19.6484 54.4785L20.7657 50.3042C21.8197 52.5394 23.0003 54.2551 24.4796 55.6385C25.9554 57.0186 27.7922 58.1275 30.2368 59.067L25.7536 60.267C24.5194 59.5581 23.42 58.7542 22.431 57.8294Z" fill="#3F5FFF"/>
<path d="M44.6649 54.535C46.7649 52.435 44.1549 46.435 38.8449 41.125C33.5349 35.815 27.5499 33.205 25.4499 35.305C23.3499 37.405 25.9599 43.405 31.2699 48.715C36.5799 54.025 42.5799 56.62 44.6649 54.535Z" fill="#6D4534"/>
<path d="M33.4154 26.905C35.2754 30.385 35.6504 34.375 34.4954 38.14C33.5204 41.35 31.5104 44.065 28.7804 45.94C28.0004 44.965 27.3254 43.99 26.7554 43.045C28.8404 41.62 30.3704 39.55 31.1204 37.105C32.0054 34.24 31.7204 31.21 30.3104 28.57C29.8454 27.7 30.1754 26.635 31.0304 26.185C31.9004 25.72 32.9654 26.05 33.4154 26.905Z" fill="#F70A8D"/>
<path d="M49.2251 41.0688C52.0612 38.8285 55.7395 38.3723 58.906 39.5533C59.7197 39.8567 60.6252 39.4431 60.9287 38.6295C61.2322 37.8158 60.8186 36.9102 60.0049 36.6068C55.8514 35.0577 51.0097 35.6515 47.2758 38.6012C46.5943 39.1395 46.4783 40.1283 47.0166 40.8097C47.5549 41.4911 48.5437 41.6071 49.2251 41.0688Z" fill="#F70A8D"/>
<path d="M25.0154 30.535C25.9764 30.535 26.7554 29.756 26.7554 28.795C26.7554 27.834 25.9764 27.055 25.0154 27.055C24.0544 27.055 23.2754 27.834 23.2754 28.795C23.2754 29.756 24.0544 30.535 25.0154 30.535Z" fill="#F70A8D"/>
<path d="M55.1954 28.795C55.1954 29.756 54.4164 30.535 53.4554 30.535C52.4944 30.535 51.7154 29.756 51.7154 28.795C51.7154 27.834 52.4944 27.055 53.4554 27.055C54.4164 27.055 55.1954 27.834 55.1954 28.795Z" fill="#F70A8D"/>
<path d="M34.7355 21.94C34.7355 22.7353 34.0908 23.38 33.2955 23.38C32.5002 23.38 31.8555 22.7353 31.8555 21.94C31.8555 21.1447 32.5002 20.5 33.2955 20.5C34.0908 20.5 34.7355 21.1447 34.7355 21.94Z" fill="#F9C23C"/>
<path d="M54.2205 52.615C54.2205 53.4186 53.569 54.07 52.7655 54.07C51.9619 54.07 51.3105 53.4186 51.3105 52.615C51.3105 51.8114 51.9619 51.16 52.7655 51.16C53.569 51.16 54.2205 51.8114 54.2205 52.615Z" fill="#F9C23C"/>
<path d="M48.4451 22.03C48.2051 21.82 47.9051 21.685 47.5751 21.67C46.7651 21.625 46.0751 22.24 46.0151 23.05C45.9101 24.7 44.7701 27.685 44.3351 28.69C44.3351 28.6975 44.3314 28.705 44.3276 28.7125C44.3239 28.72 44.3201 28.7275 44.3201 28.735C44.2397 28.9331 44.1539 29.1284 44.0623 29.3207C43.9093 29.1291 43.7403 28.9537 43.5551 28.795C43.1351 28.42 42.6251 28.135 42.0251 27.94L41.9801 27.925C39.9551 27.25 37.7501 28.345 37.0751 30.385C36.7451 31.375 36.8201 32.425 37.2851 33.355C37.7501 34.285 38.5451 34.975 39.5351 35.305C39.6415 35.3404 39.7493 35.3629 39.8567 35.3731C40.6146 35.5778 41.3481 35.5849 42.0542 35.3953C42.0114 35.6012 41.9617 35.8061 41.9051 36.01C41.6951 36.79 42.1601 37.6 42.9401 37.81C43.7201 38.02 44.5301 37.555 44.7401 36.775C45.0781 35.5531 45.2246 34.3087 45.1795 33.0516C45.9599 32.0738 46.5834 30.9967 47.0501 29.83L47.0722 29.7765C47.3503 29.1036 48.8096 25.5731 48.9551 23.215C48.9701 22.75 48.7751 22.315 48.4451 22.03ZM41.1251 30.715C41.5382 30.8527 41.9618 31.0844 42.1429 32.0292C41.4042 32.7152 40.9301 32.64 40.5101 32.5C40.4596 32.4832 40.4088 32.4693 40.3578 32.4582C40.1673 32.3686 40.014 32.2104 39.9251 32.02C39.8051 31.795 39.7901 31.54 39.8801 31.3C40.0451 30.805 40.5851 30.535 41.0801 30.7L41.1251 30.715Z" fill="#00A6ED"/>
<path d="M43.4051 43.24C48.5201 41.815 53.8751 42.46 58.4951 45.07C59.3501 45.565 59.6501 46.63 59.1851 47.47C58.7051 48.325 57.6251 48.625 56.7701 48.145C52.9751 46.015 48.5651 45.475 44.3651 46.645C40.9001 47.605 37.9301 49.645 35.7851 52.465C34.8701 51.835 33.9251 51.115 32.9951 50.305C35.5901 46.9 39.2051 44.41 43.4051 43.24Z" fill="#00A6ED"/>
<path d="M40.9362 41.478C40.9362 42.4307 40.1639 43.203 39.2112 43.203C38.2585 43.203 37.4862 42.4307 37.4862 41.478C37.4862 40.5253 38.2585 39.753 39.2112 39.753C40.1639 39.753 40.9362 40.5253 40.9362 41.478Z" fill="#00A6ED"/>
</svg>
