<svg width="12" height="15" viewBox="0 0 12 15" fill="white" xmlns="http://www.w3.org/2000/svg">
<path d="M6.00031 8C6.76597 8 7.51907 8.05378 8.25604 8.15777C8.94694 8.25526 9.50003 8.80226 9.50003 9.5C9.50003 11.9853 7.93303 14 6.00003 14C4.06703 14 2.50003 11.9853 2.50003 9.5C2.50003 8.80233 3.05304 8.25538 3.74386 8.15787C4.48106 8.05382 5.2344 8 6.00031 8ZM6.00031 8C7.92217 8 9.76509 8.33884 11.4722 8.96005C11.3892 10.363 11.1254 11.7173 10.7038 13M6.00031 8C4.07845 8 2.23593 8.33884 0.528839 8.96004C0.611866 10.363 0.875664 11.7173 1.29727 13M6.00031 8C6.82873 8 7.50038 7.32843 7.50038 6.5C7.50038 6.47679 7.49986 6.45371 7.49882 6.43076M6.00031 8C5.17188 8 4.50038 7.32843 4.50038 6.5C4.50038 6.47679 4.5009 6.45371 4.50195 6.43076M6.00062 5C6.66386 5 7.31454 4.94619 7.94852 4.84271C8.21689 4.7989 8.44236 4.60416 8.47842 4.33464C8.49306 4.22518 8.50062 4.11347 8.50062 4C8.50062 3.57896 8.39654 3.18223 8.2127 2.83414M6.00062 5C5.33738 5 4.6867 4.94619 4.05272 4.84271C3.78436 4.7989 3.55888 4.60416 3.52283 4.33464C3.50818 4.22518 3.50062 4.11347 3.50062 4C3.50062 3.57833 3.60502 3.18105 3.78937 2.83258M6.00062 5C5.1954 5 4.53813 5.63447 4.50195 6.43076M6.00062 5C6.80584 5 7.46264 5.63447 7.49882 6.43076M3.78937 2.83258C3.50488 2.64331 3.24601 2.41858 3.01907 2.16471C3.06585 1.7441 3.19958 1.34973 3.40189 1M3.78937 2.83258C4.20866 2.04002 5.04158 1.5 6.00062 1.5C6.96029 1.5 7.79367 2.04073 8.2127 2.83414M8.2127 2.83414C8.49687 2.64536 8.75553 2.42122 8.98238 2.16801C8.93594 1.74616 8.80204 1.35065 8.5992 1M1.28117 3.5C1.14448 4.22057 1.05611 4.95825 1.01956 5.70954C2.13166 6.0735 3.29744 6.31889 4.50195 6.43076M10.7196 3.5C10.8563 4.22057 10.9446 4.95825 10.9812 5.70954C9.86909 6.0735 8.70332 6.31888 7.49882 6.43076" stroke="#5D77A6" stroke-linecap="round" stroke-linejoin="round"/>
</svg>
