<svg width="12" height="15" viewBox="0 0 12 15" fill="white" xmlns="http://www.w3.org/2000/svg">
<path d="M11.1667 9V7.25C11.1667 6.00736 10.1593 5 8.91666 5H7.91666C7.50244 5 7.16666 4.66421 7.16666 4.25V3.25C7.16666 2.00736 6.1593 1 4.91666 1H3.66666M8.16666 9L6.16666 7M6.16666 7L4.16666 9M6.16666 7L6.16666 11M5.16666 1H1.91666C1.50244 1 1.16666 1.33579 1.16666 1.75V13.25C1.16666 13.6642 1.50244 14 1.91666 14H10.4167C10.8309 14 11.1667 13.6642 11.1667 13.25V7C11.1667 3.68629 8.48036 1 5.16666 1Z" stroke="#5D77A6" stroke-linecap="round" stroke-linejoin="round"/>
</svg>
