<svg width="14" height="13" viewBox="0 0 14 13" fill="none" xmlns="http://www.w3.org/2000/svg">
<path d="M10.9995 10.4794C11.1645 10.4931 11.3314 10.5 11.4999 10.5C12.1988 10.5 12.8698 10.3805 13.4935 10.1608C13.4977 10.1078 13.4999 10.0541 13.4999 10C13.4999 8.89543 12.6045 8 11.4999 8C11.0815 8 10.6931 8.12849 10.372 8.34815M10.9995 10.4794C10.9995 10.4863 10.9995 10.4931 10.9995 10.5C10.9995 10.65 10.9913 10.7981 10.9752 10.9438C9.804 11.6158 8.44662 12 6.99951 12C5.5524 12 4.19503 11.6158 3.02385 10.9438C3.00777 10.7981 2.99951 10.65 2.99951 10.5C2.99951 10.4932 2.99953 10.4863 2.99956 10.4795M10.9995 10.4794C10.9955 9.69506 10.7658 8.96408 10.372 8.34815M10.372 8.34815C9.66139 7.23679 8.41649 6.5 6.99951 6.5C5.58271 6.5 4.33795 7.23661 3.62731 8.34774M3.62731 8.34774C3.30633 8.12833 2.91815 8 2.5 8C1.39543 8 0.5 8.89543 0.5 10C0.5 10.0541 0.502151 10.1078 0.506373 10.1608C1.13013 10.3805 1.80111 10.5 2.5 10.5C2.66823 10.5 2.83484 10.4931 2.99956 10.4795M3.62731 8.34774C3.23332 8.96377 3.0035 9.69493 2.99956 10.4795M8.99951 2.5C8.99951 3.60457 8.10408 4.5 6.99951 4.5C5.89494 4.5 4.99951 3.60457 4.99951 2.5C4.99951 1.39543 5.89494 0.5 6.99951 0.5C8.10408 0.5 8.99951 1.39543 8.99951 2.5ZM12.9995 4.5C12.9995 5.32843 12.3279 6 11.4995 6C10.6711 6 9.99951 5.32843 9.99951 4.5C9.99951 3.67157 10.6711 3 11.4995 3C12.3279 3 12.9995 3.67157 12.9995 4.5ZM3.99951 4.5C3.99951 5.32843 3.32794 6 2.49951 6C1.67108 6 0.999512 5.32843 0.999512 4.5C0.999512 3.67157 1.67108 3 2.49951 3C3.32794 3 3.99951 3.67157 3.99951 4.5Z" stroke="#001F68" stroke-linecap="round" stroke-linejoin="round"/>
</svg>
