<svg width="85" height="24" viewBox="0 0 85 24" fill="none" xmlns="http://www.w3.org/2000/svg">
<path d="M5.316 16.5H3.3L0.264 7.74H1.476L4.104 15.444H4.548L6.96 7.74H8.136L5.316 16.5ZM9.83203 9.06C9.31603 9.06 9.07603 8.76 9.07603 8.34C9.07603 7.92 9.31603 7.62 9.83203 7.62C10.348 7.62 10.588 7.92 10.588 8.34C10.588 8.76 10.348 9.06 9.83203 9.06ZM10.66 16.5H9.50803V11.004H8.52403V10.092H10.66V16.5ZM15.3714 16.716C13.1154 16.716 12.1674 15.024 12.1674 13.404V13.188C12.1674 11.532 13.1514 9.876 15.2994 9.876C17.3754 9.876 18.3594 11.4 18.3594 12.996V13.512H13.2714C13.3434 14.772 13.9914 15.708 15.3714 15.708C16.3794 15.708 17.0394 15.192 17.1714 14.592H18.2514C17.9754 15.924 16.8834 16.716 15.3714 16.716ZM15.2994 10.884C14.1474 10.884 13.4994 11.592 13.3194 12.648H17.2314C17.0874 11.556 16.4514 10.884 15.2994 10.884ZM22.5282 16.5H20.7282L18.9162 10.092H20.0202L21.5322 15.588H21.7722L22.8762 10.308H24.4362L25.7202 15.588H25.9602L27.2802 10.092H28.3242L26.7522 16.5H24.9642L23.6562 11.172L22.5282 16.5ZM33.4026 16.5H32.2986V7.74H34.2186L38.6706 15.444H38.8146V7.74H39.9426V16.5H37.9986L33.5466 8.796H33.4026V16.5ZM45.0262 16.716C42.7942 16.716 41.5942 15.024 41.5942 13.404V13.188C41.5942 11.544 42.8542 9.876 45.0262 9.876C47.1982 9.876 48.4582 11.544 48.4582 13.188V13.404C48.4582 15.024 47.2582 16.716 45.0262 16.716ZM45.0262 15.684C46.4662 15.684 47.3062 14.64 47.3062 13.296C47.3062 11.928 46.4302 10.908 45.0262 10.908C43.6222 10.908 42.7462 11.928 42.7462 13.296C42.7462 14.64 43.5862 15.684 45.0262 15.684ZM52.6463 16.5H50.8463L49.0343 10.092H50.1383L51.6503 15.588H51.8903L52.9943 10.308H54.5543L55.8383 15.588H56.0783L57.3983 10.092H58.4423L56.8703 16.5H55.0823L53.7743 11.172L52.6463 16.5Z" fill="#3183FF"/>
<path d="M78.25 8.25L82 12M82 12L78.25 15.75M82 12H64" stroke="#3183FF" stroke-width="1.5" stroke-linecap="round" stroke-linejoin="round"/>
</svg>
